{
    "asset" : {
        "generator" : "Khronos glTF Blender I/O v3.3.27",
        "version" : "2.0"
    },
    "extensionsUsed" : [
        "KHR_materials_specular",
        "KHR_materials_ior"
    ],
    "scene" : 0,
    "scenes" : [
        {
            "name" : "Scene",
            "nodes" : [
                2,
                3,
                4
            ]
        }
    ],
    "nodes" : [
        {
            "mesh" : 0,
            "name" : "Cube.093",
            "scale" : [
                0.665772557258606,
                1,
                1
            ]
        },
        {
            "mesh" : 1,
            "name" : "Curve.028",
            "rotation" : [
                0.5,
                0.5,
                -0.5,
                0.5
            ],
            "scale" : [
                139.0009307861328,
                139.0009307861328,
                139.0009307861328
            ],
            "translation" : [
                0.4454764127731323,
                0.0202481746673584,
                -0.06104239448904991
            ]
        },
        {
            "children" : [
                0,
                1
            ],
            "name" : "Webflow"
        },
        {
            "mesh" : 0,
            "name" : "Cube.093",
            "scale" : [
                0.665772557258606,
                1,
                1
            ]
        },
        {
            "mesh" : 1,
            "name" : "Curve.028",
            "rotation" : [
                0.5,
                0.5,
                -0.5,
                0.5
            ],
            "scale" : [
                139.0009307861328,
                139.0009307861328,
                139.0009307861328
            ],
            "translation" : [
                0.4454764127731323,
                0.0202481746673584,
                -0.06104239448904991
            ]
        }
    ],
    "materials" : [
        {
            "doubleSided" : true,
            "extensions" : {
                "KHR_materials_specular" : {
                    "specularColorFactor" : [
                        0.4249965630508046,
                        0.4249965630508046,
                        0.4249965630508046
                    ]
                },
                "KHR_materials_ior" : {
                    "ior" : 1.4500000476837158
                }
            },
            "name" : "base_0.002",
            "pbrMetallicRoughness" : {
                "baseColorFactor" : [
                    0.054479654878377914,
                    0.08021945506334305,
                    0.9301106929779053,
                    1
                ],
                "metallicFactor" : 0,
                "roughnessFactor" : 0.356436163187027
            }
        },
        {
            "doubleSided" : true,
            "extensions" : {
                "KHR_materials_specular" : {
                    "specularColorFactor" : [
                        0.4249965630508046,
                        0.4249965630508046,
                        0.4249965630508046
                    ]
                },
                "KHR_materials_ior" : {
                    "ior" : 1.4500000476837158
                }
            },
            "name" : "base_0",
            "pbrMetallicRoughness" : {
                "metallicFactor" : 0,
                "roughnessFactor" : 0.356436163187027
            }
        }
    ],
    "meshes" : [
        {
            "name" : "Cube.105",
            "primitives" : [
                {
                    "attributes" : {
                        "POSITION" : 0,
                        "NORMAL" : 1,
                        "TEXCOORD_0" : 2
                    },
                    "indices" : 3,
                    "material" : 0
                }
            ]
        },
        {
            "name" : "Curve.005",
            "primitives" : [
                {
                    "attributes" : {
                        "POSITION" : 4,
                        "NORMAL" : 5,
                        "TEXCOORD_0" : 6
                    },
                    "indices" : 7,
                    "material" : 1
                }
            ]
        }
    ],
    "accessors" : [
        {
            "bufferView" : 0,
            "componentType" : 5126,
            "count" : 8064,
            "max" : [
                0.21214167773723602,
                1,
                1
            ],
            "min" : [
                -0.21214167773723602,
                -1,
                -1
            ],
            "type" : "VEC3"
        },
        {
            "bufferView" : 1,
            "componentType" : 5126,
            "count" : 8064,
            "type" : "VEC3"
        },
        {
            "bufferView" : 2,
            "componentType" : 5126,
            "count" : 8064,
            "type" : "VEC2"
        },
        {
            "bufferView" : 3,
            "componentType" : 5123,
            "count" : 12276,
            "type" : "SCALAR"
        },
        {
            "bufferView" : 4,
            "componentType" : 5126,
            "count" : 2884,
            "max" : [
                0.005032047163695097,
                0.001349999918602407,
                0.003632260486483574
            ],
            "min" : [
                -0.004581514745950699,
                -0.001349999918602407,
                -0.003065887838602066
            ],
            "type" : "VEC3"
        },
        {
            "bufferView" : 5,
            "componentType" : 5126,
            "count" : 2884,
            "type" : "VEC3"
        },
        {
            "bufferView" : 6,
            "componentType" : 5126,
            "count" : 2884,
            "type" : "VEC2"
        },
        {
            "bufferView" : 7,
            "componentType" : 5123,
            "count" : 12156,
            "type" : "SCALAR"
        }
    ],
    "bufferViews" : [
        {
            "buffer" : 0,
            "byteLength" : 96768,
            "byteOffset" : 0,
            "target" : 34962
        },
        {
            "buffer" : 0,
            "byteLength" : 96768,
            "byteOffset" : 96768,
            "target" : 34962
        },
        {
            "buffer" : 0,
            "byteLength" : 64512,
            "byteOffset" : 193536,
            "target" : 34962
        },
        {
            "buffer" : 0,
            "byteLength" : 24552,
            "byteOffset" : 258048,
            "target" : 34963
        },
        {
            "buffer" : 0,
            "byteLength" : 34608,
            "byteOffset" : 282600,
            "target" : 34962
        },
        {
            "buffer" : 0,
            "byteLength" : 34608,
            "byteOffset" : 317208,
            "target" : 34962
        },
        {
            "buffer" : 0,
            "byteLength" : 23072,
            "byteOffset" : 351816,
            "target" : 34962
        },
        {
            "buffer" : 0,
            "byteLength" : 24312,
            "byteOffset" : 374888,
            "target" : 34963
        }
    ],
    "buffers" : [
        {
            "byteLength" : 399200,
            "uri" : "data:application/octet-stream;base64,"
        }
    ]
}
